<svg width="266" height="64" viewBox="0 0 266 64" fill="none" xmlns="http://www.w3.org/2000/svg">
<path d="M0.984375 63V1.18182H17.767V49.4773H42.7599V63H0.984375ZM115.523 32.0909C115.523 38.973 114.185 44.7785 111.509 49.5075C108.832 54.2163 105.22 57.7881 100.672 60.223C96.1244 62.6378 91.0534 63.8452 85.4592 63.8452C79.8247 63.8452 74.7335 62.6277 70.1857 60.1928C65.658 57.7378 62.056 54.1559 59.3796 49.4471C56.7234 44.7182 55.3952 38.9328 55.3952 32.0909C55.3952 25.2088 56.7234 19.4134 59.3796 14.7045C62.056 9.97561 65.658 6.40376 70.1857 3.98899C74.7335 1.55409 79.8247 0.336645 85.4592 0.336645C91.0534 0.336645 96.1244 1.55409 100.672 3.98899C105.22 6.40376 108.832 9.97561 111.509 14.7045C114.185 19.4134 115.523 25.2088 115.523 32.0909ZM98.2575 32.0909C98.2575 28.3883 97.7644 25.2692 96.7784 22.7337C95.8125 20.178 94.3737 18.2462 92.462 16.9382C90.5704 15.6101 88.2362 14.946 85.4592 14.946C82.6822 14.946 80.3378 15.6101 78.4261 16.9382C76.5346 18.2462 75.0958 20.178 74.1097 22.7337C73.1438 25.2692 72.6609 28.3883 72.6609 32.0909C72.6609 35.7936 73.1438 38.9227 74.1097 41.4783C75.0958 44.0138 76.5346 45.9457 78.4261 47.2738C80.3378 48.5818 82.6822 49.2358 85.4592 49.2358C88.2362 49.2358 90.5704 48.5818 92.462 47.2738C94.3737 45.9457 95.8125 44.0138 96.7784 41.4783C97.7644 38.9227 98.2575 35.7936 98.2575 32.0909ZM171.934 21.5866C171.672 20.5201 171.26 19.5844 170.696 18.7795C170.133 17.9544 169.428 17.2602 168.583 16.6967C167.758 16.1132 166.792 15.6805 165.685 15.3988C164.599 15.0969 163.401 14.946 162.093 14.946C159.276 14.946 156.872 15.6201 154.879 16.9684C152.907 18.3166 151.398 20.2585 150.352 22.794C149.325 25.3295 148.812 28.3883 148.812 31.9702C148.812 35.5923 149.305 38.6913 150.291 41.267C151.277 43.8428 152.746 45.8149 154.698 47.1832C156.65 48.5516 159.075 49.2358 161.973 49.2358C164.528 49.2358 166.651 48.8635 168.342 48.119C170.052 47.3744 171.33 46.3179 172.175 44.9496C173.02 43.5812 173.443 41.9714 173.443 40.12L176.341 40.4219H162.214V28.4688H189.622V37.0412C189.622 42.6757 188.425 47.4951 186.03 51.4996C183.655 55.484 180.375 58.5427 176.19 60.6758C172.024 62.7887 167.245 63.8452 161.852 63.8452C155.835 63.8452 150.553 62.5674 146.005 60.0117C141.457 57.4561 137.906 53.8138 135.35 49.0849C132.814 44.3559 131.547 38.7315 131.547 32.2116C131.547 27.1004 132.321 22.5727 133.871 18.6285C135.44 14.6844 137.614 11.354 140.391 8.63743C143.168 5.90069 146.377 3.83807 150.02 2.44957C153.662 1.04095 157.566 0.336645 161.731 0.336645C165.394 0.336645 168.794 0.859847 171.934 1.90625C175.093 2.93253 177.88 4.40151 180.295 6.31321C182.73 8.20478 184.692 10.4485 186.181 13.0444C187.67 15.6403 188.575 18.4877 188.897 21.5866H171.934ZM265.834 32.0909C265.834 38.973 264.495 44.7785 261.819 49.5075C259.143 54.2163 255.531 57.7881 250.983 60.223C246.435 62.6378 241.364 63.8452 235.77 63.8452C230.135 63.8452 225.044 62.6277 220.496 60.1928C215.969 57.7378 212.367 54.1559 209.69 49.4471C207.034 44.7182 205.706 38.9328 205.706 32.0909C205.706 25.2088 207.034 19.4134 209.69 14.7045C212.367 9.97561 215.969 6.40376 220.496 3.98899C225.044 1.55409 230.135 0.336645 235.77 0.336645C241.364 0.336645 246.435 1.55409 250.983 3.98899C255.531 6.40376 259.143 9.97561 261.819 14.7045C264.495 19.4134 265.834 25.2088 265.834 32.0909ZM248.568 32.0909C248.568 28.3883 248.075 25.2692 247.089 22.7337C246.123 20.178 244.684 18.2462 242.773 16.9382C240.881 15.6101 238.547 14.946 235.77 14.946C232.993 14.946 230.648 15.6101 228.737 16.9382C226.845 18.2462 225.406 20.178 224.42 22.7337C223.454 25.2692 222.971 28.3883 222.971 32.0909C222.971 35.7936 223.454 38.9227 224.42 41.4783C225.406 44.0138 226.845 45.9457 228.737 47.2738C230.648 48.5818 232.993 49.2358 235.77 49.2358C238.547 49.2358 240.881 48.5818 242.773 47.2738C244.684 45.9457 246.123 44.0138 247.089 41.4783C248.075 38.9227 248.568 35.7936 248.568 32.0909Z" fill="black"/>
</svg>
